<svg id="Ebene_1" data-name="Ebene 1" xmlns="http://www.w3.org/2000/svg" viewBox="0 0 1262.62 244.73"><path d="M253.2,920.33V861.86H326l-63.13,62.43A5.66,5.66,0,0,1,253.2,920.33Z" transform="translate(-104.07 -681.21)" fill="#416cb4"/><polygon points="225.8 177.02 149.12 177.02 149.12 184.03 218.35 184.03 225.8 177.02" fill="#284e84"/><path d="M324.4,688.11c-28.27,0-45.58.3-73.28.61l-24.3.15c-30.29.2-29.53.2-31.77.2-26,0-28.63-.55-48.15-.48-22.53.08-34.06.49-39.6,8.34-3.15,4.46-3.43,9.74-3.13,13.63v18.25a333.26,333.26,0,0,0,198,64.67,337.63,337.63,0,0,0,54.15-4.36V710.56c.31-3.74.1-9.1-3.13-13.63C347,688.27,333.63,688.1,324.4,688.11Z" transform="translate(-104.07 -681.21)" fill="#416cb4"/><path d="M302.16,810.26a333.27,333.27,0,0,1-198-64.68v98.57a15,15,0,0,0,15.07,14.91h222a15,15,0,0,0,15.08-14.91V805.9A337.63,337.63,0,0,1,302.16,810.26Z" transform="translate(-104.07 -681.21)" fill="#416cb4"/><path d="M656.33,387.66" transform="translate(-104.07 -681.21)" fill="#6069e8"/><path d="M407.84,858.77v-161h24.61L502.83,815.3H490l69.23-117.53h24.61l.46,161H555.5V742.16h5.75L502.83,840.6H489.26l-59.8-98.44h6.9V858.77Z" transform="translate(-104.07 -681.21)" fill="#262728"/><path d="M661.75,860.38q-13.8,0-24.15-4.72a37.21,37.21,0,0,1-16-13.11,33.22,33.22,0,0,1-5.64-19A35.6,35.6,0,0,1,620.93,805q4.94-8.28,16.21-13.11T667,787h35.65V806.1H669.11q-14.49,0-19.66,4.71a15.38,15.38,0,0,0-5.18,11.85,14.45,14.45,0,0,0,6.21,12.19q6.21,4.6,17.25,4.6a37.37,37.37,0,0,0,19-4.83A28.48,28.48,0,0,0,699,820.36l4.6,17.25a32,32,0,0,1-14.72,16.79Q678.32,860.39,661.75,860.38Zm38.64-1.61V833.7L699,828.64V785.17q0-12.64-7.7-19.67t-23.35-7a64.23,64.23,0,0,0-20,3.22,53.12,53.12,0,0,0-17,9l-11.27-20.93a72.69,72.69,0,0,1,23.69-11.5,101.58,101.58,0,0,1,28.29-3.91q26.91,0,41.4,12.88t14.49,39.56v72Z" transform="translate(-104.07 -681.21)" fill="#262728"/><path d="M778.82,715.71a18.13,18.13,0,0,1-13.22-5.06,16.69,16.69,0,0,1-5.18-12.42,16.18,16.18,0,0,1,5.18-12,18.13,18.13,0,0,1,13.22-5.06q8.05,0,13.23,4.71A15.62,15.62,0,0,1,797.22,698a17.27,17.27,0,0,1-5.06,12.53Q787.11,715.71,778.82,715.71ZM764.56,858.77V736h28.52V858.77Z" transform="translate(-104.07 -681.21)" fill="#262728"/><path d="M882.78,860.38a64.77,64.77,0,0,1-31.86-7.82,56.61,56.61,0,0,1-22.19-22q-8.06-14.15-8.05-33.23,0-18.86,8.05-33.12a56.36,56.36,0,0,1,22.19-22.08,64.77,64.77,0,0,1,31.86-7.82,55.83,55.83,0,0,1,27.6,6.78q12.18,6.79,19.32,20.7t7.13,35.54q0,21.39-6.9,35.42t-19,20.81Q898.89,860.39,882.78,860.38ZM886.23,836a36.32,36.32,0,0,0,18.52-4.72,34.81,34.81,0,0,0,13.1-13.57,41,41,0,0,0,4.95-20.35q0-11.73-4.95-20.36a35.35,35.35,0,0,0-13.1-13.34,38.75,38.75,0,0,0-37,0A35.4,35.4,0,0,0,854.6,777q-4.94,8.63-4.94,20.36a41.07,41.07,0,0,0,4.94,20.35,34.85,34.85,0,0,0,13.12,13.57A36.26,36.26,0,0,0,886.23,836Zm37.49,22.77v-29l.69-32.66-2.3-32.66V688.11h29V858.77Z" transform="translate(-104.07 -681.21)" fill="#262728"/><path d="M1040.79,860.38q-15.64,0-27.6-5.87a42.7,42.7,0,0,1-18.75-17.94q-6.78-12.08-6.78-30.47V736h29v66.47q0,16.33,7.59,24.49t21.16,8.17a36.43,36.43,0,0,0,17.71-4.14,27.93,27.93,0,0,0,11.73-12.42q4.14-8.28,4.14-20.47V736h28.75V858.77h-27.37V825.42l4.83,10.35A43.27,43.27,0,0,1,1067,853.94,54.47,54.47,0,0,1,1040.79,860.38Z" transform="translate(-104.07 -681.21)" fill="#262728"/><path d="M1183.62,860.38a107.19,107.19,0,0,1-29.67-4q-14-4-22.54-9.77l11-21.85a75.53,75.53,0,0,0,19.78,8.62,82.74,82.74,0,0,0,23.23,3.34q13.33,0,19.43-3.57t6.1-9.77a8.6,8.6,0,0,0-4.14-7.71,32.33,32.33,0,0,0-10.81-4q-6.68-1.38-14.84-2.53T1164.87,806a56.16,56.16,0,0,1-14.83-5.75A30.72,30.72,0,0,1,1139.23,790q-4.14-6.43-4.14-17.25a32,32,0,0,1,6.67-20.13q6.66-8.62,18.74-13.45t28.64-4.83a113.78,113.78,0,0,1,24.95,2.87,73.32,73.32,0,0,1,21.28,7.94L1224.1,767a58.81,58.81,0,0,0-17.48-7,83.24,83.24,0,0,0-17.71-2q-12.89,0-19.32,3.79t-6.44,9.78a9.29,9.29,0,0,0,4.14,8.28,32,32,0,0,0,10.81,4.25q6.66,1.5,14.83,2.76t16.22,3.22a65.1,65.1,0,0,1,14.83,5.52,28.68,28.68,0,0,1,10.93,10q4.14,6.43,4.14,16.79a31,31,0,0,1-6.79,20.12q-6.78,8.4-19.09,13.11T1183.62,860.38Z" transform="translate(-104.07 -681.21)" fill="#262728"/><path d="M1300.92,860.38q-13.8,0-24.15-4.72a37.3,37.3,0,0,1-16-13.11,33.29,33.29,0,0,1-5.63-19,35.6,35.6,0,0,1,4.94-18.63q5-8.28,16.22-13.11t29.9-4.83h35.65V806.1h-33.58q-14.49,0-19.67,4.71a15.37,15.37,0,0,0-5.17,11.85,14.45,14.45,0,0,0,6.21,12.19q6.21,4.6,17.25,4.6a37.33,37.33,0,0,0,19-4.83,28.5,28.5,0,0,0,12.31-14.26l4.6,17.25a32.07,32.07,0,0,1-14.72,16.79Q1317.47,860.39,1300.92,860.38Zm38.64-1.61V833.7l-1.38-5.06V785.17q0-12.64-7.71-19.67t-23.34-7a64.14,64.14,0,0,0-20,3.22,52.91,52.91,0,0,0-17,9l-11.27-20.93a72.59,72.59,0,0,1,23.69-11.5,101.53,101.53,0,0,1,28.29-3.91q26.91,0,41.4,12.88t14.49,39.56v72Z" transform="translate(-104.07 -681.21)" fill="#262728"/></svg>